<svg xmlns="http://www.w3.org/2000/svg" version="1.1" xmlns:xlink="http://www.w3.org/1999/xlink" xmlns:svgjs="http://svgjs.com/svgjs" width="2560" height="1440" preserveAspectRatio="none" viewBox="0 0 2560 1440"><g mask="url(&quot;#SvgjsMask1299&quot;)" fill="none"><rect width="2560" height="1440" x="0" y="0" fill="url(#SvgjsLinearGradient1300)"></rect><path d="M2406 1181L1393 2194" stroke-width="8" stroke="url(#SvgjsLinearGradient1301)" stroke-linecap="round" class="BottomLeft"></path><path d="M1751 175L2246 -320" stroke-width="10" stroke="url(#SvgjsLinearGradient1302)" stroke-linecap="round" class="BottomLeft"></path><path d="M376 380L1339 -583" stroke-width="6" stroke="url(#SvgjsLinearGradient1302)" stroke-linecap="round" class="BottomLeft"></path><path d="M1958 785L2670 73" stroke-width="10" stroke="url(#SvgjsLinearGradient1303)" stroke-linecap="round" class="TopRight"></path><path d="M2039 1227L1548 1718" stroke-width="6" stroke="url(#SvgjsLinearGradient1303)" stroke-linecap="round" class="TopRight"></path><path d="M1700 1005L1060 1645" stroke-width="8" stroke="url(#SvgjsLinearGradient1304)" stroke-linecap="round" class="BottomLeft"></path><path d="M1425 994L952 1467" stroke-width="10" stroke="url(#SvgjsLinearGradient1302)" stroke-linecap="round" class="BottomLeft"></path><path d="M2319 227L1830 716" stroke-width="8" stroke="url(#SvgjsLinearGradient1303)" stroke-linecap="round" class="TopRight"></path><path d="M210 42L728 -476" stroke-width="10" stroke="url(#SvgjsLinearGradient1304)" stroke-linecap="round" class="BottomLeft"></path><path d="M1611 146L2428 -671" stroke-width="6" stroke="url(#SvgjsLinearGradient1303)" stroke-linecap="round" class="TopRight"></path><path d="M1989 1200L1295 1894" stroke-width="8" stroke="url(#SvgjsLinearGradient1305)" stroke-linecap="round" class="TopRight"></path><path d="M1033 1149L1687 495" stroke-width="8" stroke="url(#SvgjsLinearGradient1304)" stroke-linecap="round" class="BottomLeft"></path><path d="M615 235L-458 1308" stroke-width="6" stroke="url(#SvgjsLinearGradient1302)" stroke-linecap="round" class="BottomLeft"></path><path d="M101 408L503 6" stroke-width="8" stroke="url(#SvgjsLinearGradient1304)" stroke-linecap="round" class="BottomLeft"></path><path d="M1782 1188L2531 439" stroke-width="6" stroke="url(#SvgjsLinearGradient1302)" stroke-linecap="round" class="BottomLeft"></path><path d="M638 431L1190 -121" stroke-width="10" stroke="url(#SvgjsLinearGradient1303)" stroke-linecap="round" class="TopRight"></path><path d="M2512 727L1719 1520" stroke-width="10" stroke="url(#SvgjsLinearGradient1302)" stroke-linecap="round" class="BottomLeft"></path><path d="M1750 349L907 1192" stroke-width="8" stroke="url(#SvgjsLinearGradient1306)" stroke-linecap="round" class="TopRight"></path><path d="M1949 956L2674 231" stroke-width="6" stroke="url(#SvgjsLinearGradient1306)" stroke-linecap="round" class="TopRight"></path><path d="M442 1090L1135 397" stroke-width="10" stroke="url(#SvgjsLinearGradient1302)" stroke-linecap="round" class="BottomLeft"></path><path d="M2317 1218L3279 256" stroke-width="6" stroke="url(#SvgjsLinearGradient1303)" stroke-linecap="round" class="TopRight"></path><path d="M135 1081L909 307" stroke-width="6" stroke="url(#SvgjsLinearGradient1305)" stroke-linecap="round" class="TopRight"></path><path d="M447 370L1500 -683" stroke-width="6" stroke="url(#SvgjsLinearGradient1306)" stroke-linecap="round" class="TopRight"></path><path d="M1296 727L834 1189" stroke-width="8" stroke="url(#SvgjsLinearGradient1303)" stroke-linecap="round" class="TopRight"></path><path d="M992 381L1418 -45" stroke-width="6" stroke="url(#SvgjsLinearGradient1301)" stroke-linecap="round" class="BottomLeft"></path><path d="M1282 1194L2284 192" stroke-width="8" stroke="url(#SvgjsLinearGradient1301)" stroke-linecap="round" class="BottomLeft"></path><path d="M730 915L-78 1723" stroke-width="6" stroke="url(#SvgjsLinearGradient1302)" stroke-linecap="round" class="BottomLeft"></path><path d="M2419 639L1745 1313" stroke-width="6" stroke="url(#SvgjsLinearGradient1302)" stroke-linecap="round" class="BottomLeft"></path><path d="M1284 103L2226 -839" stroke-width="8" stroke="url(#SvgjsLinearGradient1304)" stroke-linecap="round" class="BottomLeft"></path><path d="M1004 589L111 1482" stroke-width="8" stroke="url(#SvgjsLinearGradient1303)" stroke-linecap="round" class="TopRight"></path><path d="M1314 1269L934 1649" stroke-width="10" stroke="url(#SvgjsLinearGradient1301)" stroke-linecap="round" class="BottomLeft"></path><path d="M2147 1238L3166 219" stroke-width="10" stroke="url(#SvgjsLinearGradient1301)" stroke-linecap="round" class="BottomLeft"></path><path d="M1620 506L2681 -555" stroke-width="10" stroke="url(#SvgjsLinearGradient1303)" stroke-linecap="round" class="TopRight"></path><path d="M2471 384L1635 1220" stroke-width="10" stroke="url(#SvgjsLinearGradient1302)" stroke-linecap="round" class="BottomLeft"></path><path d="M955 1239L1984 210" stroke-width="8" stroke="url(#SvgjsLinearGradient1301)" stroke-linecap="round" class="BottomLeft"></path><path d="M672 606L1486 -208" stroke-width="6" stroke="url(#SvgjsLinearGradient1305)" stroke-linecap="round" class="TopRight"></path><path d="M1629 91L2669 -949" stroke-width="6" stroke="url(#SvgjsLinearGradient1305)" stroke-linecap="round" class="TopRight"></path><path d="M398 718L-326 1442" stroke-width="6" stroke="url(#SvgjsLinearGradient1301)" stroke-linecap="round" class="BottomLeft"></path><path d="M2070 800L1686 1184" stroke-width="6" stroke="url(#SvgjsLinearGradient1304)" stroke-linecap="round" class="BottomLeft"></path><path d="M610 1124L1353 381" stroke-width="10" stroke="url(#SvgjsLinearGradient1304)" stroke-linecap="round" class="BottomLeft"></path><path d="M120 1257L-865 2242" stroke-width="10" stroke="url(#SvgjsLinearGradient1301)" stroke-linecap="round" class="BottomLeft"></path><path d="M1052 711L432 1331" stroke-width="8" stroke="url(#SvgjsLinearGradient1304)" stroke-linecap="round" class="BottomLeft"></path><path d="M2276 951L1514 1713" stroke-width="8" stroke="url(#SvgjsLinearGradient1303)" stroke-linecap="round" class="TopRight"></path><path d="M1482 295L2028 -251" stroke-width="6" stroke="url(#SvgjsLinearGradient1305)" stroke-linecap="round" class="TopRight"></path><path d="M387 1122L891 618" stroke-width="6" stroke="url(#SvgjsLinearGradient1302)" stroke-linecap="round" class="BottomLeft"></path><path d="M2026 568L2809 -215" stroke-width="6" stroke="url(#SvgjsLinearGradient1301)" stroke-linecap="round" class="BottomLeft"></path><path d="M1584 253L1104 733" stroke-width="10" stroke="url(#SvgjsLinearGradient1305)" stroke-linecap="round" class="TopRight"></path><path d="M1049 310L124 1235" stroke-width="10" stroke="url(#SvgjsLinearGradient1305)" stroke-linecap="round" class="TopRight"></path><path d="M2436 184L3205 -585" stroke-width="10" stroke="url(#SvgjsLinearGradient1301)" stroke-linecap="round" class="BottomLeft"></path><path d="M219 513L-855 1587" stroke-width="6" stroke="url(#SvgjsLinearGradient1303)" stroke-linecap="round" class="TopRight"></path><path d="M1430 116L2290 -744" stroke-width="10" stroke="url(#SvgjsLinearGradient1301)" stroke-linecap="round" class="BottomLeft"></path><path d="M2229 217L1416 1030" stroke-width="10" stroke="url(#SvgjsLinearGradient1304)" stroke-linecap="round" class="BottomLeft"></path><path d="M680 780L-147 1607" stroke-width="8" stroke="url(#SvgjsLinearGradient1306)" stroke-linecap="round" class="TopRight"></path><path d="M740 624L1523 -159" stroke-width="6" stroke="url(#SvgjsLinearGradient1305)" stroke-linecap="round" class="TopRight"></path><path d="M2482 798L3182 98" stroke-width="10" stroke="url(#SvgjsLinearGradient1304)" stroke-linecap="round" class="BottomLeft"></path><path d="M1689 571L915 1345" stroke-width="6" stroke="url(#SvgjsLinearGradient1304)" stroke-linecap="round" class="BottomLeft"></path><path d="M1782 1317L1275 1824" stroke-width="8" stroke="url(#SvgjsLinearGradient1305)" stroke-linecap="round" class="TopRight"></path><path d="M2510 1104L1882 1732" stroke-width="8" stroke="url(#SvgjsLinearGradient1305)" stroke-linecap="round" class="TopRight"></path><path d="M724 778L1328 174" stroke-width="8" stroke="url(#SvgjsLinearGradient1306)" stroke-linecap="round" class="TopRight"></path><path d="M969 577L1894 -348" stroke-width="6" stroke="url(#SvgjsLinearGradient1304)" stroke-linecap="round" class="BottomLeft"></path><path d="M1545 454L489 1510" stroke-width="6" stroke="url(#SvgjsLinearGradient1301)" stroke-linecap="round" class="BottomLeft"></path><path d="M930 797L430 1297" stroke-width="6" stroke="url(#SvgjsLinearGradient1304)" stroke-linecap="round" class="BottomLeft"></path><path d="M1587 24L1222 389" stroke-width="6" stroke="url(#SvgjsLinearGradient1304)" stroke-linecap="round" class="BottomLeft"></path><path d="M2175 91L2654 -388" stroke-width="8" stroke="url(#SvgjsLinearGradient1301)" stroke-linecap="round" class="BottomLeft"></path><path d="M225 770L-541 1536" stroke-width="6" stroke="url(#SvgjsLinearGradient1302)" stroke-linecap="round" class="BottomLeft"></path><path d="M1144 371L461 1054" stroke-width="10" stroke="url(#SvgjsLinearGradient1304)" stroke-linecap="round" class="BottomLeft"></path><path d="M1343 1252L806 1789" stroke-width="6" stroke="url(#SvgjsLinearGradient1302)" stroke-linecap="round" class="BottomLeft"></path><path d="M1971 147L1522 596" stroke-width="10" stroke="url(#SvgjsLinearGradient1306)" stroke-linecap="round" class="TopRight"></path><path d="M257 1018L-270 1545" stroke-width="8" stroke="url(#SvgjsLinearGradient1305)" stroke-linecap="round" class="TopRight"></path><path d="M2239 1238L3146 331" stroke-width="6" stroke="url(#SvgjsLinearGradient1303)" stroke-linecap="round" class="TopRight"></path><path d="M2412 935L2916 431" stroke-width="6" stroke="url(#SvgjsLinearGradient1305)" stroke-linecap="round" class="TopRight"></path><path d="M1848 124L2407 -435" stroke-width="6" stroke="url(#SvgjsLinearGradient1303)" stroke-linecap="round" class="TopRight"></path><path d="M1579 1189L2391 377" stroke-width="6" stroke="url(#SvgjsLinearGradient1301)" stroke-linecap="round" class="BottomLeft"></path><path d="M1768 442L2378 -168" stroke-width="8" stroke="url(#SvgjsLinearGradient1305)" stroke-linecap="round" class="TopRight"></path></g><defs><mask id="SvgjsMask1299"><rect width="2560" height="1440" fill="#ffffff"></rect></mask><linearGradient x1="10.94%" y1="-19.44%" x2="89.06%" y2="119.44%" gradientUnits="userSpaceOnUse" id="SvgjsLinearGradient1300"><stop stop-color="#0e2a47" offset="0"></stop><stop stop-color="rgba(0, 12, 27, 1)" offset="1"></stop></linearGradient><linearGradient x1="100%" y1="0%" x2="0%" y2="100%" id="SvgjsLinearGradient1301"><stop stop-color="rgba(24, 152, 198, 0)" offset="0"></stop><stop stop-color="rgba(24, 152, 198, 1)" offset="1"></stop></linearGradient><linearGradient x1="100%" y1="0%" x2="0%" y2="100%" id="SvgjsLinearGradient1302"><stop stop-color="rgba(28, 83, 142, 0)" offset="0"></stop><stop stop-color="#1c538e" offset="1"></stop></linearGradient><linearGradient x1="0%" y1="100%" x2="100%" y2="0%" id="SvgjsLinearGradient1303"><stop stop-color="rgba(24, 152, 198, 0)" offset="0"></stop><stop stop-color="rgba(24, 152, 198, 1)" offset="1"></stop></linearGradient><linearGradient x1="100%" y1="0%" x2="0%" y2="100%" id="SvgjsLinearGradient1304"><stop stop-color="rgba(0, 32, 73, 0)" offset="0"></stop><stop stop-color="rgba(0, 32, 73, 1)" offset="1"></stop></linearGradient><linearGradient x1="0%" y1="100%" x2="100%" y2="0%" id="SvgjsLinearGradient1305"><stop stop-color="rgba(0, 32, 73, 0)" offset="0"></stop><stop stop-color="rgba(0, 32, 73, 1)" offset="1"></stop></linearGradient><linearGradient x1="0%" y1="100%" x2="100%" y2="0%" id="SvgjsLinearGradient1306"><stop stop-color="rgba(28, 83, 142, 0)" offset="0"></stop><stop stop-color="#1c538e" offset="1"></stop></linearGradient></defs></svg>