<svg xmlns="http://www.w3.org/2000/svg" version="1.1" xmlns:xlink="http://www.w3.org/1999/xlink" xmlns:svgjs="http://svgjs.com/svgjs" width="2560" height="1440" preserveAspectRatio="none" viewBox="0 0 2560 1440"><g mask="url(&quot;#SvgjsMask3011&quot;)" fill="none"><rect width="2560" height="1440" x="0" y="0" fill="url(#SvgjsLinearGradient3012)"></rect><path d="M1910 760L1480 1190" stroke-width="6" stroke="url(#SvgjsLinearGradient3013)" stroke-linecap="round" class="TopRight"></path><path d="M176 248L-286 710" stroke-width="8" stroke="url(#SvgjsLinearGradient3014)" stroke-linecap="round" class="BottomLeft"></path><path d="M1524 151L2561 -886" stroke-width="8" stroke="url(#SvgjsLinearGradient3014)" stroke-linecap="round" class="BottomLeft"></path><path d="M423 559L-460 1442" stroke-width="6" stroke="url(#SvgjsLinearGradient3015)" stroke-linecap="round" class="TopRight"></path><path d="M2423 1150L3441 132" stroke-width="8" stroke="url(#SvgjsLinearGradient3016)" stroke-linecap="round" class="BottomLeft"></path><path d="M2385 933L1822 1496" stroke-width="10" stroke="url(#SvgjsLinearGradient3016)" stroke-linecap="round" class="BottomLeft"></path><path d="M152 990L-409 1551" stroke-width="8" stroke="url(#SvgjsLinearGradient3015)" stroke-linecap="round" class="TopRight"></path><path d="M2518 880L3289 109" stroke-width="8" stroke="url(#SvgjsLinearGradient3017)" stroke-linecap="round" class="BottomLeft"></path><path d="M898 619L-104 1621" stroke-width="6" stroke="url(#SvgjsLinearGradient3017)" stroke-linecap="round" class="BottomLeft"></path><path d="M1148 58L281 925" stroke-width="10" stroke="url(#SvgjsLinearGradient3014)" stroke-linecap="round" class="BottomLeft"></path><path d="M191 1325L-232 1748" stroke-width="8" stroke="url(#SvgjsLinearGradient3016)" stroke-linecap="round" class="BottomLeft"></path><path d="M2259 29L1557 731" stroke-width="8" stroke="url(#SvgjsLinearGradient3017)" stroke-linecap="round" class="BottomLeft"></path><path d="M226 639L-692 1557" stroke-width="10" stroke="url(#SvgjsLinearGradient3015)" stroke-linecap="round" class="TopRight"></path><path d="M1027 1065L1719 373" stroke-width="6" stroke="url(#SvgjsLinearGradient3015)" stroke-linecap="round" class="TopRight"></path><path d="M1659 682L740 1601" stroke-width="10" stroke="url(#SvgjsLinearGradient3018)" stroke-linecap="round" class="TopRight"></path><path d="M1295 732L712 1315" stroke-width="8" stroke="url(#SvgjsLinearGradient3017)" stroke-linecap="round" class="BottomLeft"></path><path d="M118 1304L-325 1747" stroke-width="8" stroke="url(#SvgjsLinearGradient3016)" stroke-linecap="round" class="BottomLeft"></path><path d="M2345 694L1447 1592" stroke-width="6" stroke="url(#SvgjsLinearGradient3015)" stroke-linecap="round" class="TopRight"></path><path d="M1580 1137L1175 1542" stroke-width="8" stroke="url(#SvgjsLinearGradient3013)" stroke-linecap="round" class="TopRight"></path><path d="M1293 476L870 899" stroke-width="10" stroke="url(#SvgjsLinearGradient3015)" stroke-linecap="round" class="TopRight"></path><path d="M2227 1006L2925 308" stroke-width="10" stroke="url(#SvgjsLinearGradient3014)" stroke-linecap="round" class="BottomLeft"></path><path d="M289 259L652 -104" stroke-width="10" stroke="url(#SvgjsLinearGradient3014)" stroke-linecap="round" class="BottomLeft"></path><path d="M2105 344L2495 -46" stroke-width="6" stroke="url(#SvgjsLinearGradient3018)" stroke-linecap="round" class="TopRight"></path><path d="M1011 930L523 1418" stroke-width="6" stroke="url(#SvgjsLinearGradient3015)" stroke-linecap="round" class="TopRight"></path><path d="M459 67L-69 595" stroke-width="8" stroke="url(#SvgjsLinearGradient3018)" stroke-linecap="round" class="TopRight"></path><path d="M2373 471L3435 -591" stroke-width="6" stroke="url(#SvgjsLinearGradient3015)" stroke-linecap="round" class="TopRight"></path><path d="M940 437L373 1004" stroke-width="10" stroke="url(#SvgjsLinearGradient3013)" stroke-linecap="round" class="TopRight"></path><path d="M2130 854L2907 77" stroke-width="10" stroke="url(#SvgjsLinearGradient3018)" stroke-linecap="round" class="TopRight"></path><path d="M195 812L837 170" stroke-width="8" stroke="url(#SvgjsLinearGradient3017)" stroke-linecap="round" class="BottomLeft"></path><path d="M52 554L1103 -497" stroke-width="8" stroke="url(#SvgjsLinearGradient3018)" stroke-linecap="round" class="TopRight"></path><path d="M830 501L1566 -235" stroke-width="6" stroke="url(#SvgjsLinearGradient3016)" stroke-linecap="round" class="BottomLeft"></path><path d="M817 774L226 1365" stroke-width="8" stroke="url(#SvgjsLinearGradient3017)" stroke-linecap="round" class="BottomLeft"></path><path d="M2432 628L3272 -212" stroke-width="6" stroke="url(#SvgjsLinearGradient3014)" stroke-linecap="round" class="BottomLeft"></path><path d="M655 655L1128 182" stroke-width="6" stroke="url(#SvgjsLinearGradient3015)" stroke-linecap="round" class="TopRight"></path><path d="M592 278L-305 1175" stroke-width="10" stroke="url(#SvgjsLinearGradient3016)" stroke-linecap="round" class="BottomLeft"></path><path d="M1782 940L1276 1446" stroke-width="8" stroke="url(#SvgjsLinearGradient3014)" stroke-linecap="round" class="BottomLeft"></path><path d="M1105 82L1813 -626" stroke-width="6" stroke="url(#SvgjsLinearGradient3014)" stroke-linecap="round" class="BottomLeft"></path><path d="M2163 886L2576 473" stroke-width="6" stroke="url(#SvgjsLinearGradient3014)" stroke-linecap="round" class="BottomLeft"></path><path d="M2285 1406L3161 530" stroke-width="10" stroke="url(#SvgjsLinearGradient3016)" stroke-linecap="round" class="BottomLeft"></path><path d="M2092 782L1672 1202" stroke-width="6" stroke="url(#SvgjsLinearGradient3018)" stroke-linecap="round" class="TopRight"></path><path d="M1507 990L1043 1454" stroke-width="8" stroke="url(#SvgjsLinearGradient3017)" stroke-linecap="round" class="BottomLeft"></path><path d="M1921 396L2715 -398" stroke-width="6" stroke="url(#SvgjsLinearGradient3015)" stroke-linecap="round" class="TopRight"></path><path d="M251 1172L-472 1895" stroke-width="10" stroke="url(#SvgjsLinearGradient3013)" stroke-linecap="round" class="TopRight"></path><path d="M475 170L1182 -537" stroke-width="8" stroke="url(#SvgjsLinearGradient3015)" stroke-linecap="round" class="TopRight"></path><path d="M1829 1136L1349 1616" stroke-width="10" stroke="url(#SvgjsLinearGradient3018)" stroke-linecap="round" class="TopRight"></path><path d="M1546 453L2076 -77" stroke-width="10" stroke="url(#SvgjsLinearGradient3018)" stroke-linecap="round" class="TopRight"></path><path d="M1278 1204L2163 319" stroke-width="8" stroke="url(#SvgjsLinearGradient3013)" stroke-linecap="round" class="TopRight"></path><path d="M2283 699L1539 1443" stroke-width="8" stroke="url(#SvgjsLinearGradient3017)" stroke-linecap="round" class="BottomLeft"></path><path d="M2379 92L3149 -678" stroke-width="6" stroke="url(#SvgjsLinearGradient3013)" stroke-linecap="round" class="TopRight"></path><path d="M899 1038L135 1802" stroke-width="6" stroke="url(#SvgjsLinearGradient3015)" stroke-linecap="round" class="TopRight"></path><path d="M226 1416L-141 1783" stroke-width="6" stroke="url(#SvgjsLinearGradient3016)" stroke-linecap="round" class="BottomLeft"></path><path d="M228 1341L934 635" stroke-width="6" stroke="url(#SvgjsLinearGradient3015)" stroke-linecap="round" class="TopRight"></path><path d="M2132 1071L1307 1896" stroke-width="10" stroke="url(#SvgjsLinearGradient3013)" stroke-linecap="round" class="TopRight"></path><path d="M2371 1372L3028 715" stroke-width="10" stroke="url(#SvgjsLinearGradient3018)" stroke-linecap="round" class="TopRight"></path><path d="M293 404L-660 1357" stroke-width="8" stroke="url(#SvgjsLinearGradient3013)" stroke-linecap="round" class="TopRight"></path><path d="M1936 905L980 1861" stroke-width="6" stroke="url(#SvgjsLinearGradient3016)" stroke-linecap="round" class="BottomLeft"></path><path d="M607 1037L1021 623" stroke-width="6" stroke="url(#SvgjsLinearGradient3015)" stroke-linecap="round" class="TopRight"></path><path d="M2058 1403L2787 674" stroke-width="8" stroke="url(#SvgjsLinearGradient3016)" stroke-linecap="round" class="BottomLeft"></path><path d="M724 954L91 1587" stroke-width="10" stroke="url(#SvgjsLinearGradient3013)" stroke-linecap="round" class="TopRight"></path><path d="M1415 472L1871 16" stroke-width="6" stroke="url(#SvgjsLinearGradient3015)" stroke-linecap="round" class="TopRight"></path><path d="M2442 1028L1596 1874" stroke-width="10" stroke="url(#SvgjsLinearGradient3015)" stroke-linecap="round" class="TopRight"></path><path d="M2531 765L1748 1548" stroke-width="6" stroke="url(#SvgjsLinearGradient3014)" stroke-linecap="round" class="BottomLeft"></path><path d="M1828 800L1397 1231" stroke-width="8" stroke="url(#SvgjsLinearGradient3016)" stroke-linecap="round" class="BottomLeft"></path><path d="M410 1247L809 848" stroke-width="10" stroke="url(#SvgjsLinearGradient3016)" stroke-linecap="round" class="BottomLeft"></path><path d="M2554 378L2968 -36" stroke-width="10" stroke="url(#SvgjsLinearGradient3013)" stroke-linecap="round" class="TopRight"></path><path d="M1013 338L1376 -25" stroke-width="8" stroke="url(#SvgjsLinearGradient3013)" stroke-linecap="round" class="TopRight"></path><path d="M2435 1000L1996 1439" stroke-width="8" stroke="url(#SvgjsLinearGradient3017)" stroke-linecap="round" class="BottomLeft"></path><path d="M321 204L-70 595" stroke-width="8" stroke="url(#SvgjsLinearGradient3014)" stroke-linecap="round" class="BottomLeft"></path><path d="M2185 162L3229 -882" stroke-width="8" stroke="url(#SvgjsLinearGradient3015)" stroke-linecap="round" class="TopRight"></path><path d="M2321 1138L2904 555" stroke-width="6" stroke="url(#SvgjsLinearGradient3018)" stroke-linecap="round" class="TopRight"></path><path d="M1363 562L840 1085" stroke-width="6" stroke="url(#SvgjsLinearGradient3015)" stroke-linecap="round" class="TopRight"></path><path d="M2408 240L1330 1318" stroke-width="6" stroke="url(#SvgjsLinearGradient3016)" stroke-linecap="round" class="BottomLeft"></path><path d="M1385 94L624 855" stroke-width="8" stroke="url(#SvgjsLinearGradient3014)" stroke-linecap="round" class="BottomLeft"></path><path d="M2237 1012L3304 -55" stroke-width="6" stroke="url(#SvgjsLinearGradient3016)" stroke-linecap="round" class="BottomLeft"></path></g><defs><mask id="SvgjsMask3011"><rect width="2560" height="1440" fill="#ffffff"></rect></mask><linearGradient x1="10.94%" y1="-19.44%" x2="89.06%" y2="119.44%" gradientUnits="userSpaceOnUse" id="SvgjsLinearGradient3012"><stop stop-color="rgba(23, 66, 112, 1)" offset="0"></stop><stop stop-color="rgba(0, 12, 27, 1)" offset="1"></stop></linearGradient><linearGradient x1="0%" y1="100%" x2="100%" y2="0%" id="SvgjsLinearGradient3013"><stop stop-color="rgba(28, 83, 142, 0)" offset="0"></stop><stop stop-color="#1c538e" offset="1"></stop></linearGradient><linearGradient x1="100%" y1="0%" x2="0%" y2="100%" id="SvgjsLinearGradient3014"><stop stop-color="rgba(0, 32, 73, 0)" offset="0"></stop><stop stop-color="rgba(0, 32, 73, 1)" offset="1"></stop></linearGradient><linearGradient x1="0%" y1="100%" x2="100%" y2="0%" id="SvgjsLinearGradient3015"><stop stop-color="rgba(0, 32, 73, 0)" offset="0"></stop><stop stop-color="rgba(0, 32, 73, 1)" offset="1"></stop></linearGradient><linearGradient x1="100%" y1="0%" x2="0%" y2="100%" id="SvgjsLinearGradient3016"><stop stop-color="rgba(28, 83, 142, 0)" offset="0"></stop><stop stop-color="#1c538e" offset="1"></stop></linearGradient><linearGradient x1="100%" y1="0%" x2="0%" y2="100%" id="SvgjsLinearGradient3017"><stop stop-color="rgba(24, 152, 198, 0)" offset="0"></stop><stop stop-color="rgba(24, 152, 198, 1)" offset="1"></stop></linearGradient><linearGradient x1="0%" y1="100%" x2="100%" y2="0%" id="SvgjsLinearGradient3018"><stop stop-color="rgba(24, 152, 198, 0)" offset="0"></stop><stop stop-color="rgba(24, 152, 198, 1)" offset="1"></stop></linearGradient></defs></svg>