<svg xmlns="http://www.w3.org/2000/svg" version="1.1" xmlns:xlink="http://www.w3.org/1999/xlink" xmlns:svgjs="http://svgjs.com/svgjs" width="3840" height="2160" preserveAspectRatio="none" viewBox="0 0 3840 2160"><g mask="url(&quot;#SvgjsMask1098&quot;)" fill="none"><rect width="3840" height="2160" x="0" y="0" fill="url(#SvgjsLinearGradient1099)"></rect><path d="M -2747.870617586954,2028 C -2363.87,1750.2 -1595.87,794.2 -827.8706175869539,639 C -59.87,483.8 324.13,1172.8 1092.1293824130462,1252 C 1860.13,1331.2 2462.56,941 3012.129382413046,1035 C 3561.7,1129 3674.43,1584.6 3840,1722" stroke="rgba(0, 124, 254, 1)" stroke-width="2"></path><path d="M -3424.4634843356134,319 C -3040.46,552.4 -2272.46,1365.6 -1504.4634843356134,1486 C -736.46,1606.4 -352.46,998.6 415.53651566438657,921 C 1183.54,843.4 1650.64,1214.6 2335.5365156643866,1098 C 3020.43,981.4 3539.11,490 3840,338" stroke="rgba(0, 124, 254, 1)" stroke-width="2"></path><path d="M -1276.0100144031812,1752 C -892.01,1561.8 -124.01,888 643.9899855968188,801 C 1411.99,714 1795.99,1298.4 2563.9899855968188,1317 C 3331.99,1335.6 4228.79,798 4483.989985596819,894 C 4739.19,990 3968.8,1616.4 3840,1797" stroke="rgba(0, 124, 254, 1)" stroke-width="2"></path><path d="M -2705.4239436212665,1281 C -2321.42,1103.8 -1553.42,374.6 -785.4239436212665,395 C -17.42,415.4 366.58,1349.4 1134.5760563787335,1383 C 1902.58,1416.6 2513.49,566.2 3054.5760563787335,563 C 3595.66,559.8 3682.92,1206.2 3840,1367" stroke="rgba(0, 124, 254, 1)" stroke-width="2"></path><path d="M -791.6060813854115,1862 C -407.61,1671.8 360.39,995.2 1128.3939186145885,911 C 1896.39,826.8 2280.39,1419.8 3048.3939186145885,1441 C 3816.39,1462.2 4810.07,987.2 4968.393918614589,1017 C 5126.72,1046.8 4065.68,1475.4 3840,1590" stroke="rgba(0, 124, 254, 1)" stroke-width="2"></path><path d="M -3214.213174095118,921 C -2830.21,1014.6 -2062.21,1386.8 -1294.213174095118,1389 C -526.21,1391.2 -142.21,802.4 625.7868259048821,932 C 1393.79,1061.6 1902.94,2020.8 2545.786825904882,2037 C 3188.63,2053.2 3581.16,1217.8 3840,1013" stroke="rgba(0, 124, 254, 1)" stroke-width="2"></path><path d="M -1129.8428040090514,358 C -745.84,633 22.16,1746.6 790.1571959909486,1733 C 1558.16,1719.4 1942.16,310.8 2710.157195990949,290 C 3478.16,269.2 4404.19,1520 4630.157195990949,1629 C 4856.13,1738 3998.03,993.8 3840,835" stroke="rgba(0, 124, 254, 1)" stroke-width="2"></path><path d="M -423.0706239246365,1259 C -39.07,1012.2 728.93,-21 1496.9293760753635,25 C 2264.93,71 2648.93,1346.6 3416.9293760753635,1489 C 4184.93,1631.4 5252.32,790.4 5336.9293760753635,737 C 5421.54,683.6 4139.39,1125 3840,1222" stroke="rgba(0, 124, 254, 1)" stroke-width="2"></path><path d="M -3627.0624454804024,1169 C -3243.06,951.8 -2475.06,-95.6 -1707.0624454804024,83 C -939.06,261.6 -555.06,2060.2 212.9375545195976,2062 C 980.94,2063.8 1407.53,192.2 2132.9375545195976,92 C 2858.35,-8.2 3498.59,1267.2 3840,1561" stroke="rgba(0, 124, 254, 1)" stroke-width="2"></path><path d="M -3593.3721023140747,54 C -3209.37,422 -2441.37,1874.6 -1673.3721023140747,1894 C -905.37,1913.4 -521.37,254.2 246.6278976859253,151 C 1014.63,47.8 1447.95,1238.6 2166.6278976859253,1378 C 2885.3,1517.4 3505.33,954 3840,848" stroke="rgba(0, 124, 254, 1)" stroke-width="2"></path></g><defs><mask id="SvgjsMask1098"><rect width="3840" height="2160" fill="#ffffff"></rect></mask><linearGradient x1="10.94%" y1="-19.44%" x2="89.06%" y2="119.44%" gradientUnits="userSpaceOnUse" id="SvgjsLinearGradient1099"><stop stop-color="#0e2a47" offset="0"></stop><stop stop-color="rgba(0, 12, 27, 1)" offset="1"></stop></linearGradient></defs></svg>